<?xml version="1.0" encoding="utf-8"?>
<!-- Generator: Adobe Illustrator 24.2.3, SVG Export Plug-In . SVG Version: 6.00 Build 0)  -->
<svg version="1.1" id="圖層_1" xmlns="http://www.w3.org/2000/svg" xmlns:xlink="http://www.w3.org/1999/xlink" x="0px" y="0px"
	 viewBox="0 0 32 32" style="enable-background:new 0 0 32 32;" xml:space="preserve">
<style type="text/css">
	.st0{fill:#FCFCFC;stroke:#FFFFFF;stroke-miterlimit:10;}
</style>
<path class="st0" d="M29.2,25.9l-6.7-5.7c-0.7-0.6-1.4-0.9-2-0.9c1.6-1.9,2.5-4.3,2.5-6.9c0-5.9-4.8-10.6-10.6-10.6
	S1.8,6.5,1.8,12.4S6.5,23,12.4,23c2.6,0,5-1,6.9-2.5c0,0.6,0.3,1.3,0.9,2l5.7,6.7c1,1.1,2.6,1.2,3.5,0.2
	C30.4,28.5,30.3,26.9,29.2,25.9z M12.4,19.5c-3.9,0-7.1-3.2-7.1-7.1s3.2-7.1,7.1-7.1s7.1,3.2,7.1,7.1S16.3,19.5,12.4,19.5z"/>
</svg>
